<svg width="186" height="44" viewBox="0 0 186 26" fill="none" xmlns="http://www.w3.org/2000/svg">
    <path d="M52.7232 10.4245C51.4872 9.80653 50.1286 9.37368 48.9552 8.87954C46.6383 7.79866 46.0203 6.68652 46.0203 5.1728C46.0203 3.47392 47.3476 2.5782 49.2642 2.5782C51.7049 2.5782 53.4338 3.72162 54.9788 7.64354H55.6893V1.6512C55.6893 1.6512 53.126 1.0332 50.036 1.0332C45.0633 1.0332 42.1597 3.65907 42.1597 7.55096C42.1597 9.92913 43.5495 11.7519 45.8351 12.8953C46.886 13.3582 48.1207 13.791 49.1403 14.2239C52.1677 15.4598 52.9083 16.5407 52.9083 18.456C52.9083 20.1862 51.7349 21.4209 49.418 21.4209C47.2563 21.4209 44.3214 20.4013 43.1792 15.4598H42.3148L42.4999 22.2553C44.3539 22.6569 46.5157 22.9659 48.3684 22.9659C53.1873 22.9659 56.6776 21.3909 56.6776 15.954C56.6776 13.5133 55.3491 11.6906 52.7244 10.4245H52.7232Z" fill="#005AA0"/>
    <path d="M75.1315 6.59375C69.572 6.59375 67.3164 7.67462 67.3164 14.9342C67.3164 22.1938 69.602 22.9657 75.1315 22.9657C80.6609 22.9657 82.5137 22.1626 82.5137 14.9342C82.5137 7.7059 80.8761 6.59375 75.1315 6.59375ZM75.1315 21.6371C72.2592 21.6371 71.9501 21.3894 71.9501 14.9342C71.9501 8.47902 72.104 7.92232 75.1315 7.92232C77.7573 7.92232 77.8799 8.6329 77.8799 14.9342C77.8799 21.2356 77.6022 21.6371 75.1315 21.6371Z" fill="#005AA0"/>
    <path d="M91.6758 6.59403C88.1542 6.59403 84.54 7.64487 84.54 14.6555C84.54 20.2463 86.5792 22.9647 91.5832 22.9647C93.5298 22.9647 95.5514 22.6557 97.4354 20.9569V20.6479H93.4372C89.2363 20.6479 89.1738 19.7834 89.1738 14.0375C89.1738 9.58894 89.5453 8.7245 91.5219 8.7245C93.2521 8.7245 94.1165 8.72449 95.8767 8.81707V8.90964C93.8375 9.06352 93.745 9.89794 93.745 10.7011C93.745 12.1535 94.4868 12.8328 95.8454 12.8328C97.4517 12.8328 98.0384 12.2774 98.0384 10.6085C98.0384 8.4155 95.4126 6.59277 91.6758 6.59277V6.59403Z" fill="#005AA0"/>
    <path d="M130.7 19.9683V10.6395C130.7 7.33437 128.322 6.59253 126.314 6.59253C124.739 6.59253 122.546 7.21053 121.094 8.19882V0.415039H114.452V0.970488C116.708 1.55721 116.769 1.64979 116.769 3.10221V19.9671C116.769 21.6359 115.943 21.9074 115.29 21.9074C114.792 21.9074 114.403 21.417 114.012 20.8941L108.277 12.5236C108.277 12.5236 110.892 9.5274 111.819 8.66295C112.437 8.07622 112.931 7.70592 114.352 7.5508V6.90153H108.606V7.5508C109.842 7.58207 110.398 7.70467 110.398 8.04495C110.398 8.19882 110.212 8.44652 109.872 8.75552L104.508 14.285L108.976 20.9879C109.1 21.2043 109.193 21.3582 109.193 21.482C109.193 21.8223 108.606 21.8836 107.401 22.1613V22.6555H123.409V22.1C121.185 21.5133 121.092 21.3895 121.092 19.9683V9.12582C122.266 9.03325 123.409 8.94067 124.551 8.94067C126.189 8.94067 126.374 9.31097 126.374 10.856V19.9683C126.374 21.4207 126.312 21.5133 124.057 22.1V22.6555H133.016V22.1C130.792 21.5133 130.699 21.3895 130.699 19.9683H130.7Z" fill="#005AA0"/>
    <path d="M141.363 6.59375C135.804 6.59375 133.548 7.67462 133.548 14.9342C133.548 22.1938 135.834 22.9657 141.363 22.9657C146.893 22.9657 148.746 22.1626 148.746 14.9342C148.746 7.7059 147.108 6.59375 141.363 6.59375ZM141.363 21.6371C138.491 21.6371 138.182 21.3894 138.182 14.9342C138.182 8.47902 138.337 7.92232 141.363 7.92232C143.989 7.92232 144.112 8.6329 144.112 14.9342C144.112 21.2356 143.834 21.6371 141.363 21.6371Z" fill="#005AA0"/>
    <path d="M183.416 19.9681L183.385 10.6092C183.385 7.30408 181.068 6.5935 179.06 6.5935C177.393 6.5935 175.013 7.2728 173.562 8.32365C172.82 6.80993 171.153 6.5935 169.639 6.5935C167.848 6.5935 165.316 7.33535 163.894 8.54008V6.9025H157.871V7.45795C160.126 8.04467 160.188 8.13725 160.188 9.58967L160.156 19.9681C160.156 21.0252 159.96 21.6369 158.77 21.9747C158.394 22.081 157.709 22.0973 157.234 21.9572C156.131 21.6306 155.887 21.1427 155.887 19.9681V0.416016H149.245V0.971464C151.499 1.55819 151.562 1.65076 151.562 3.10319V19.9681C151.562 21.4205 151.499 21.513 149.245 22.0998V22.6552H166.797V22.0998C164.572 21.513 164.48 21.3892 164.48 19.9681L164.449 9.09552C165.622 8.97167 166.766 8.91037 167.878 8.91037C169.515 8.91037 169.7 9.28067 169.7 10.7644L169.669 19.9693C169.669 21.4217 169.607 21.5143 167.352 22.101V22.6565H176.309V22.101C174.085 21.5143 173.993 21.3904 173.993 19.9693L173.961 10.3015C173.961 9.83862 173.93 9.43705 173.837 9.09677C175.011 9.0042 176.154 8.91162 177.297 8.91162C178.934 8.91162 179.119 9.28192 179.119 10.7656L179.088 19.9706C179.088 21.423 179.025 21.5156 176.771 22.1023V22.6577H185.73V22.1023C183.505 21.5156 183.413 21.3917 183.413 19.9706L183.416 19.9681Z" fill="#005AA0"/>
    <path d="M104.232 19.968V0.416016H97.5908V0.971464C99.8451 1.55819 99.9077 1.65076 99.9077 3.10319V20.0906C99.9077 21.4305 99.8502 21.6131 98.0712 22.0948V22.6565H106.549V22.101C104.325 21.5143 104.232 21.3904 104.232 19.9693V19.968Z" fill="#005AA0"/>
    <path d="M9.14808 21.1119H7.34162V4.0319C7.34162 2.58072 7.40293 2.48815 9.6585 1.90018V1.34473H0.516113V1.90018C2.74041 2.4869 2.83299 2.61075 2.83299 4.0319V19.9698C2.83299 21.4209 2.77168 21.5148 0.516113 22.1015V22.6569H16.2826L16.6541 15.8614H16.0987C13.967 21.2358 12.2068 21.1119 9.14933 21.1119H9.14808Z" fill="#005AA0"/>
    <path d="M18.3955 1.37475V2.02277C20.6473 2.60825 20.7086 2.70082 20.7086 4.15074V19.9723C20.7086 21.4222 20.6473 21.5148 18.3955 22.1002V22.6557H27.5254V22.1002C25.3048 21.5148 25.2123 21.3909 25.2123 19.9723V13.0642H26.8161C28.944 13.0329 29.8072 13.2493 30.6091 16.3644H31.3184C31.2872 14.8531 31.2571 13.6196 31.2571 12.1697C31.2571 10.5659 31.2884 9.57887 31.3184 8.12895H30.6091C29.8072 11.2127 29.0366 11.5217 26.8161 11.5217H25.2123V2.91725H27.4941C31.3797 2.91725 31.8426 3.53399 33.9706 7.54348H34.526L34.0944 1.34473L18.3955 1.376V1.37475Z" fill="#005AA0"/>
    <path d="M63.3557 17.5288V8.3401L66.6759 7.55197V6.90269H63.3557V2.4541H62.8003L59.0322 5.2964V19.1038C59.0322 21.9461 60.0205 22.9344 62.6764 22.9344C64.7156 22.9344 66.0654 22.1087 66.9299 21.4207V20.8952H66.2668C63.3682 20.8952 63.3545 20.5887 63.3545 17.5288H63.3557Z" fill="#005AA0"/>
</svg>
