<?xml version="1.0" encoding="UTF-8" standalone="no"?>
<!-- Generator: Adobe Illustrator 21.1.0, SVG Export Plug-In . SVG Version: 6.00 Build 0)  -->

<svg
   xmlns:osb="http://www.openswatchbook.org/uri/2009/osb"
   xmlns:dc="http://purl.org/dc/elements/1.1/"
   xmlns:cc="http://creativecommons.org/ns#"
   xmlns:rdf="http://www.w3.org/1999/02/22-rdf-syntax-ns#"
   xmlns:svg="http://www.w3.org/2000/svg"
   xmlns="http://www.w3.org/2000/svg"
   xmlns:xlink="http://www.w3.org/1999/xlink"
   xmlns:sodipodi="http://sodipodi.sourceforge.net/DTD/sodipodi-0.dtd"
   xmlns:inkscape="http://www.inkscape.org/namespaces/inkscape"
   version="1.1"
   id="Layer_1"
   x="0px"
   y="0px"
   viewBox="0 0 24 24"
   style="enable-background:new 0 0 24 24;"
   xml:space="preserve"
   inkscape:version="0.91 r13725"
   sodipodi:docname="qrcode-scan-blue.svg"><metadata
     id="metadata41"><rdf:RDF><cc:Work
         rdf:about=""><dc:format>image/svg+xml</dc:format><dc:type
           rdf:resource="http://purl.org/dc/dcmitype/StillImage" /><dc:title></dc:title></cc:Work></rdf:RDF></metadata><defs
     id="defs39"><linearGradient
       id="linearGradient4199"
       osb:paint="solid"><stop
         style="stop-color:#006481;stop-opacity:1;"
         offset="0"
         id="stop4201" /></linearGradient><linearGradient
       inkscape:collect="always"
       xlink:href="#linearGradient4199"
       id="linearGradient4203"
       x1="4"
       y1="7"
       x2="10"
       y2="7"
       gradientUnits="userSpaceOnUse" /></defs><sodipodi:namedview
     pagecolor="#ffffff"
     bordercolor="#666666"
     borderopacity="1"
     objecttolerance="10"
     gridtolerance="10"
     guidetolerance="10"
     inkscape:pageopacity="0"
     inkscape:pageshadow="2"
     inkscape:window-width="1920"
     inkscape:window-height="1137"
     id="namedview37"
     showgrid="false"
     inkscape:zoom="27.812867"
     inkscape:cx="11.927364"
     inkscape:cy="15.836434"
     inkscape:window-x="-8"
     inkscape:window-y="-8"
     inkscape:window-maximized="1"
     inkscape:current-layer="g3" /><g
     id="g3"><polyline
       points="4,13 8,13 8,11 4,11  "
       id="polyline5"
       style="fill:url(#linearGradient4199)" /><rect
       x="11"
       y="8"
       width="2"
       height="2"
       id="rect7"
       style="fill:url(#linearGradient4199)" /><rect
       x="16"
       y="11"
       width="2"
       height="2"
       id="rect9"
       style="fill:url(#linearGradient4199)" /><path
       d="M20,4h-6v6h6V4z M18,8h-2V6h2V8z"
       id="path11"
       style="fill:url(#linearGradient4199)" /><line
       x1="4"
       y1="11"
       x2="4"
       y2="13"
       id="line13" /><path
       d="M2,2h5V0H2C0.9,0,0,0.9,0,2v5h2V2z"
       id="path15"
       style="fill:url(#linearGradient4199)" /><path
       d="M2,17H0v5c0,1.1,0.9,2,2,2h5v-2H2V17z"
       id="path17"
       style="fill:url(#linearGradient4199)" /><path
       d="M22,22h-5v2h5c1.1,0,2-0.9,2-2v-5h-2V22z"
       id="path19"
       style="fill:url(#linearGradient4199)" /><polygon
       points="20,20 20,15 18,15 18,18 16,18 16,16 14,16 14,20 18,20  "
       id="polygon21"
       style="fill:url(#linearGradient4199)" /><path
       d="M22,0h-5v2h5v5h2V2C24,0.9,23.1,0,22,0z"
       id="path23"
       style="fill:url(#linearGradient4199)" /><polygon
       points="15,11 11,11 11,15 13,15 13,13 15,13  "
       id="polygon25"
       style="fill:url(#linearGradient4199)" /><rect
       x="11"
       y="16.9"
       width="2"
       height="2"
       id="rect27"
       style="fill:url(#linearGradient4199)" /><path
       d="M4,10h6V4H4V10z M6,6h2v2H6V6z"
       id="path29"
       style="fill:url(#linearGradient4203);fill-opacity:1" /><path
       d="M4,20h6v-6H4V20z M6,16h2v2H6V16z"
       id="path31"
       style="fill:url(#linearGradient4199)" /><rect
       x="11"
       y="4"
       width="2"
       height="2"
       id="rect33"
       style="fill:url(#linearGradient4199)" /><line
       x1="12"
       y1="10"
       x2="12"
       y2="8"
       id="line35"
       style="fill:url(#linearGradient4199)" /></g></svg>