<?xml version="1.0" encoding="UTF-8"?>
<svg width="140" height="35" viewBox="0 0 140 35" fill="none" xmlns="http://www.w3.org/2000/svg">
    <path d="M15.2 26.4c-2.8 0-5-0.9-6.6-2.7C7 22 6.2 19.5 6.2 16.5c0-3.1 0.8-5.6 2.4-7.3 1.6-1.8 3.8-2.7 6.6-2.7 2.8 0 5 0.9 6.6 2.7 1.6 1.8 2.4 4.2 2.4 7.3 0 3-0.8 5.5-2.4 7.2-1.6 1.8-3.8 2.7-6.6 2.7z" fill="#008054"/>
    <path d="M38.4 26.4c-2.8 0-5-0.9-6.6-2.7-1.6-1.8-2.4-4.2-2.4-7.2 0-3.1 0.8-5.6 2.4-7.3 1.6-1.8 3.8-2.7 6.6-2.7 2.8 0 5 0.9 6.6 2.7 1.6 1.8 2.4 4.2 2.4 7.3 0 3-0.8 5.5-2.4 7.2-1.6 1.8-3.8 2.7-6.6 2.7z" fill="#008054"/>
    <path d="M61.6 26.4c-2.8 0-5-0.9-6.6-2.7-1.6-1.8-2.4-4.2-2.4-7.2 0-3.1 0.8-5.6 2.4-7.3 1.6-1.8 3.8-2.7 6.6-2.7 2.8 0 5 0.9 6.6 2.7 1.6 1.8 2.4 4.2 2.4 7.3 0 3-0.8 5.5-2.4 7.2-1.6 1.8-3.8 2.7-6.6 2.7z" fill="#008054"/>
    <path d="M84.8 26.4c-2.8 0-5-0.9-6.6-2.7-1.6-1.8-2.4-4.2-2.4-7.2 0-3.1 0.8-5.6 2.4-7.3 1.6-1.8 3.8-2.7 6.6-2.7 2.8 0 5 0.9 6.6 2.7 1.6 1.8 2.4 4.2 2.4 7.3 0 3-0.8 5.5-2.4 7.2-1.6 1.8-3.8 2.7-6.6 2.7z" fill="#008054"/>
    <path d="M108 26.4c-2.8 0-5-0.9-6.6-2.7-1.6-1.8-2.4-4.2-2.4-7.2 0-3.1 0.8-5.6 2.4-7.3 1.6-1.8 3.8-2.7 6.6-2.7 2.8 0 5 0.9 6.6 2.7 1.6 1.8 2.4 4.2 2.4 7.3 0 3-0.8 5.5-2.4 7.2-1.6 1.8-3.8 2.7-6.6 2.7z" fill="#008054"/>
    <circle cx="130" cy="23" r="4" fill="#008054"/>
</svg> 